<svg width="324" height="298" viewBox="0 0 324 298" fill="none" xmlns="http://www.w3.org/2000/svg">
<path d="M18.5672 67.3152V93.7045H1.40167V48.5555V20.4548V3.28803H44.5462C61.8436 3.28803 75.8951 17.4085 75.8951 34.8015C75.8951 52.1947 61.8436 66.3152 44.5462 66.3152H19.0672V66.8152H18.5672V67.3152ZM44.0462 20.5476V20.5477H19.0672H18.5672V21.0477V48.5627V49.0629L19.0673 49.0627L44.5462 49.0555C44.5462 49.0555 44.5463 49.0555 44.5463 49.0555C52.3743 49.0554 58.7294 42.6636 58.7294 34.8015C58.7294 26.9394 52.3742 20.5476 44.5462 20.5476H44.0462ZM89.7079 3.28801H132.853C150.15 3.28801 164.201 17.4084 164.201 34.8015C164.201 47.6462 156.182 59.6652 144.355 64.0941L144.451 64.6223L144.131 64.8629L165.823 93.7045H144.308L123.815 66.5142L123.665 66.3151H123.416H107.374H106.874V66.8151V93.7045H89.7079V49.0555H109.615H110.616L110.014 48.255L89.7079 21.2363V3.28801ZM131.981 48.8556L132.131 49.0555H132.381H132.853C140.568 49.0555 146.918 42.5394 146.918 34.8015C146.918 27.0636 140.568 20.5476 132.853 20.5476H111.738H110.738L111.338 21.3477L131.981 48.8556ZM194.496 20.5476H179.812V3.28798H227.346V20.5476H212.662H212.162V21.0476V75.9448V76.4448H212.662H227.346V93.7045H179.812V76.4448H194.496H194.996V75.9448V21.0476V20.5476H194.496ZM259.622 78.9091V93.7045H242.339V39.7815C242.339 26.9368 247.236 17.2331 254.542 10.7356C261.857 4.23004 271.614 0.916504 281.355 0.916504C291.211 0.916504 300.788 4.28748 307.896 10.8186C314.997 17.3431 319.663 27.0478 319.663 39.7815V93.7045H302.498V49.6225V48.6627L301.711 49.2128L259.836 78.4994L259.622 78.6486V78.9091ZM299.444 30.356L299.81 30.1115L299.614 29.7175C295.749 21.9475 288.609 18.2947 281.473 18.2947C269.794 18.2947 259.622 26.3065 259.622 39.7814V56.0254V56.9608L260.4 56.4412L299.444 30.356Z" stroke="white"/>
<path opacity="0.6" d="M162.684 192.943V206.485H154.039V182.748V167.827V158.947H176.712C185.766 158.947 193.122 166.338 193.122 175.445C193.122 184.552 185.766 191.943 176.712 191.943H163.184V192.443H162.684V192.943ZM176.212 167.642V167.642H163.184H162.684V168.142V182.751V183.252L163.184 183.251L176.712 183.248C176.712 183.248 176.712 183.248 176.712 183.248C180.999 183.248 184.477 179.748 184.477 175.445C184.477 171.142 180.999 167.642 176.712 167.642H176.212ZM200.925 158.947H223.599C232.652 158.947 240.009 166.338 240.009 175.445C240.009 182.172 235.807 188.463 229.624 190.778L229.719 191.307L229.4 191.547L240.635 206.485H229.798L218.988 192.142L218.838 191.943H218.588H210.071H209.571V192.443V206.485H200.925V183.248H211.26H212.262L211.66 182.447L200.925 168.164V158.947ZM222.948 183.048L223.098 183.248H223.348H223.599C227.829 183.248 231.301 179.679 231.301 175.445C231.301 171.211 227.829 167.642 223.599 167.642H212.388H211.387L211.988 168.442L222.948 183.048ZM256.329 167.642H248.767V158.947H273.536V167.642H265.974H265.474V168.142V197.29V197.79H265.974H273.536V206.485H248.767V197.79H256.329H256.829V197.29V168.142V167.642H256.329ZM290.673 198.864V206.485H281.966V178.089C281.966 171.334 284.539 166.246 288.366 162.842C292.203 159.43 297.326 157.688 302.447 157.688C307.628 157.688 312.654 159.46 316.381 162.884C320.099 166.301 322.552 171.39 322.552 178.089V206.485H313.907V183.314V182.354L313.121 182.904L290.887 198.454L290.673 198.604V198.864ZM312.182 173.28L312.548 173.035L312.352 172.641C310.257 168.43 306.381 166.446 302.509 166.446C296.197 166.446 290.673 170.787 290.673 178.089V186.714V187.649L291.451 187.13L312.182 173.28Z" stroke="white"/>
<path d="M101.955 140.061V159.008H89.7256V126.263V105.798V93.4317H121.011C133.533 93.4317 143.706 103.654 143.706 116.246C143.706 128.839 133.533 139.061 121.011 139.061H102.455V139.561H101.955V140.061ZM102.455 126.768L121.011 126.763C121.011 126.763 121.011 126.763 121.011 126.763C126.788 126.763 131.476 122.047 131.476 116.246C131.476 110.446 126.788 105.73 121.011 105.73H120.511V105.73H102.455H101.955V106.23V126.268V126.769L102.455 126.768ZM154.037 93.4317H185.323C197.844 93.4317 208.017 103.654 208.017 116.246C208.017 125.547 202.209 134.248 193.652 137.452L193.748 137.981L193.428 138.221L209.062 159.008H193.733L178.849 139.26L178.699 139.061H178.45H166.767H166.267V139.561V159.008H154.037V126.763H168.399H169.4L168.799 125.963L154.037 106.322V93.4317ZM184.579 126.563L184.729 126.763H184.979H185.323C191.019 126.763 195.702 121.955 195.702 116.246C195.702 110.538 191.019 105.73 185.323 105.73H169.945H168.945L169.545 106.53L184.579 126.563ZM230.216 105.73H219.658V93.4317H254.005V105.73H243.446H242.946V106.23V146.21V146.71H243.446H254.005V159.008H219.658V146.71H230.216H230.716V146.21V106.23V105.73H230.216ZM277.51 148.369V159.008H265.195V119.873C265.195 110.556 268.745 103.527 274.037 98.8213C279.337 94.1079 286.409 91.7046 293.474 91.7046C300.622 91.7046 307.562 94.1493 312.711 98.8802C317.853 103.605 321.237 110.635 321.237 119.873V159.008H309.007V127.04V126.08L308.221 126.631L277.724 147.959L277.51 148.109V148.369ZM306.723 113.122L307.089 112.877L306.893 112.483C304.054 106.775 298.804 104.089 293.559 104.089C284.99 104.089 277.51 109.974 277.51 119.873V131.703V132.639L278.288 132.119L306.723 113.122Z" stroke="white"/>
<path opacity="0.5" d="M206.919 232.057V241.648H200.895V224.496V213.63V207.299H217.272C223.789 207.299 229.087 212.62 229.087 219.178C229.087 225.736 223.789 231.057 217.272 231.057H207.419V231.557H206.919V232.057ZM207.419 213.36H206.919V213.86V224.499V224.999L207.42 224.999L217.272 224.996C217.272 224.996 217.272 224.996 217.272 224.996C220.47 224.996 223.063 222.386 223.063 219.178C223.063 215.97 220.469 213.36 217.272 213.36H216.772L207.419 213.36ZM235.042 207.299H251.418C257.936 207.299 263.234 212.62 263.234 219.178C263.234 224.023 260.206 228.552 255.759 230.218L255.854 230.746L255.534 230.986L263.553 241.648H256.001L248.169 231.256L248.019 231.057H247.769H241.566H241.066V231.557V241.648H235.042V224.996H242.433H243.434L242.832 224.196L235.042 213.83V207.299ZM250.836 224.796L250.986 224.996H251.236H251.418C254.576 224.996 257.164 222.334 257.164 219.178C257.164 216.021 254.576 213.36 251.418 213.36H243.254H242.253L242.854 214.16L250.836 224.796ZM275.255 213.36H269.883V207.299H287.651V213.36H282.279H281.779V213.86V235.087V235.587H282.279H287.651V241.648H269.883V235.587H275.255H275.755V235.087V213.86V213.36H275.255ZM300.131 236.234V241.648H294.061V221.104C294.061 216.221 295.92 212.554 298.677 210.101C301.444 207.641 305.142 206.382 308.842 206.382C312.585 206.382 316.211 207.662 318.897 210.13C321.576 212.591 323.348 216.26 323.348 221.104V241.648H317.324V224.909V223.949L316.537 224.499L300.345 235.824L300.131 235.973V236.234ZM316.007 217.714L316.373 217.469L316.177 217.075C314.627 213.96 311.755 212.488 308.887 212.488C304.226 212.488 300.131 215.701 300.131 221.104V227.385V228.32L300.909 227.801L316.007 217.714Z" stroke="white"/>
<path opacity="0.4" d="M239.115 260.497V267.159H235.033V254.888V247.027V242.585H246.743C251.381 242.585 255.153 246.372 255.153 251.041C255.153 255.709 251.381 259.497 246.743 259.497H239.615V259.997H239.115V260.497ZM246.243 246.693V246.693H239.615H239.115V247.193V254.89V255.39L239.615 255.39L246.743 255.388C246.743 255.388 246.743 255.388 246.743 255.388C249.133 255.388 251.071 253.437 251.071 251.041C251.071 248.644 249.133 246.693 246.743 246.693H246.243ZM259.737 242.585H271.447C276.085 242.585 279.857 246.372 279.857 251.041C279.857 254.491 277.699 257.714 274.538 258.898L274.634 259.426L274.314 259.667L279.949 267.159H274.831L269.206 259.696L269.056 259.497H268.807H264.319H263.819V259.997V267.159H259.737V255.388H264.946H265.947L265.346 254.588L259.737 247.125V242.585ZM270.915 255.188L271.065 255.388H271.315H271.447C273.81 255.388 275.742 253.398 275.742 251.041C275.742 248.683 273.81 246.693 271.447 246.693H265.54H264.54L265.14 247.493L270.915 255.188ZM288.692 246.693H284.944V242.585H297.522V246.693H293.774H293.274V247.193V262.551V263.051H293.774H297.522V267.159H284.944V263.051H288.692H289.192V262.551V247.193V246.693H288.692ZM306.551 263.38V267.159H302.436V252.434C302.436 248.94 303.765 246.324 305.73 244.577C307.703 242.822 310.345 241.921 312.991 241.921C315.669 241.921 318.258 242.837 320.173 244.596C322.08 246.349 323.348 248.966 323.348 252.434V267.159H319.266V255.187V254.227L318.48 254.777L306.765 262.97L306.551 263.119V263.38ZM318.252 250.096L318.618 249.852L318.422 249.458C317.276 247.153 315.148 246.063 313.024 246.063C309.586 246.063 306.551 248.438 306.551 252.434V256.978V257.913L307.329 257.394L318.252 250.096Z" stroke="white"/>
<path opacity="0.3" d="M262.431 280.147V284.688H259.756V275.953V270.268V267.193H268.086C271.364 267.193 274.03 269.87 274.03 273.17C274.03 276.471 271.364 279.147 268.086 279.147H262.931V279.647H262.431V280.147ZM262.931 269.888H262.431V270.388V275.954V276.455L262.932 276.454L268.086 276.453C268.086 276.453 268.086 276.453 268.086 276.453C269.892 276.453 271.355 274.979 271.355 273.17C271.355 271.361 269.892 269.888 268.086 269.888H267.586L262.931 269.888ZM277.622 267.193H285.952C289.229 267.193 291.896 269.87 291.896 273.17C291.896 275.611 290.369 277.888 288.139 278.723L288.235 279.251L287.915 279.492L291.823 284.688H288.468L284.442 279.346L284.292 279.147H284.043H280.797H280.297V279.647V284.688H277.622V276.453H281.251H282.252L281.65 275.653L277.622 270.293V267.193ZM285.457 276.253L285.607 276.453H285.857H285.952C287.74 276.453 289.197 274.95 289.197 273.17C289.197 271.391 287.74 269.888 285.952 269.888H281.68H280.68L281.28 270.688L285.457 276.253ZM298.424 269.888H295.852V267.193H304.671V269.888H302.099H301.599V270.388V281.494V281.994H302.099H304.671V284.688H295.852V281.994H298.424H298.924V281.494V270.388V269.888H298.424ZM311.201 282.094V284.688H308.502V274.178C308.502 271.689 309.447 269.836 310.837 268.599C312.236 267.355 314.113 266.714 315.997 266.714C317.902 266.714 319.74 267.365 321.097 268.612C322.446 269.852 323.348 271.706 323.348 274.178V284.688H320.673V276.169V275.209L319.886 275.759L311.414 281.684L311.201 281.834V282.094ZM319.878 272.603L320.244 272.358L320.048 271.964C319.194 270.247 317.605 269.432 316.02 269.432C313.469 269.432 311.201 271.201 311.201 274.178V277.464V278.4L311.979 277.88L319.878 272.603Z" stroke="white"/>
<path opacity="0.2" d="M279.272 294.051V297.061H277.613V290.878V286.765V284.679H283.502C285.796 284.679 287.664 286.553 287.664 288.865C287.664 291.178 285.796 293.051 283.502 293.051H279.772V293.551H279.272V294.051ZM283.002 286.352H279.772H279.272V286.852V290.879V291.38L279.772 291.379L283.502 291.378C283.502 291.378 283.502 291.378 283.502 291.378C284.885 291.378 286.005 290.25 286.005 288.865C286.005 287.48 284.885 286.352 283.502 286.352H283.002V286.352ZM290.539 284.679H296.428C298.723 284.679 300.591 286.553 300.591 288.865C300.591 290.576 299.519 292.171 297.963 292.753L298.058 293.282L297.738 293.522L300.4 297.061H298.318L295.446 293.25L295.296 293.051H295.047H292.699H292.199V293.551V297.061H290.539V291.378H293.027H294.028L293.426 290.578L290.539 286.737V284.679ZM295.959 291.179L296.109 291.378H296.359H296.428C297.8 291.378 298.914 290.227 298.914 288.865C298.914 287.503 297.8 286.352 296.428 286.352H293.338H292.337L292.938 287.152L295.959 291.179ZM305.452 286.352H303.729V284.679H309.834V286.352H308.111H307.611V286.852V294.888V295.388H308.111H309.834V297.061H303.729V295.388H305.452H305.952V294.888V286.852V286.352H305.452ZM314.559 295.322V297.061H312.883V289.594C312.883 287.832 313.55 286.529 314.526 285.661C315.51 284.786 316.834 284.332 318.167 284.332C319.515 284.332 320.81 284.793 321.764 285.669C322.71 286.538 323.348 287.842 323.348 289.594V297.061H321.689V291.035V290.075L320.902 290.625L314.772 294.912L314.559 295.061V295.322ZM321.052 288.569L321.418 288.325L321.222 287.931C320.579 286.638 319.38 286.022 318.184 286.022C316.272 286.022 314.559 287.354 314.559 289.594V291.972V292.907L315.337 292.388L321.052 288.569Z" stroke="white"/>
</svg>
