<svg width="320" height="298" viewBox="0 0 320 298" fill="none" xmlns="http://www.w3.org/2000/svg">
<path d="M17.7544 67.227V93.6164H0.588928V48.4674V20.3666V3.1999H43.7334C61.0308 3.1999 75.0823 17.3203 75.0823 34.7134C75.0823 52.1066 61.0308 66.227 43.7334 66.227H18.2544V66.727H17.7544V67.227ZM43.2334 20.4595V20.4595H18.2544H17.7544V20.9595V48.4746V48.9747L18.2546 48.9746L43.7334 48.9673C43.7335 48.9673 43.7335 48.9673 43.7336 48.9673C51.5615 48.9672 57.9166 42.5755 57.9166 34.7133C57.9166 26.8513 51.5614 20.4595 43.7334 20.4595H43.2334ZM88.8951 3.19988H132.04C149.337 3.19988 163.388 17.3203 163.388 34.7134C163.388 47.558 155.369 59.5771 143.542 64.006L143.638 64.5342L143.318 64.7748L165.01 93.6164H143.495L123.002 66.426L122.852 66.227H122.603H106.561H106.061V66.727V93.6164H88.8951V48.9673H108.802H109.803L109.202 48.1669L88.8951 21.1482V3.19988ZM131.168 48.7674L131.318 48.9673H131.568H132.04C139.755 48.9673 146.105 42.4513 146.105 34.7133C146.105 26.9755 139.755 20.4595 132.04 20.4595H110.925H109.925L110.525 21.2596L131.168 48.7674ZM193.684 20.4595H178.999V3.19985H226.534V20.4595H211.849H211.349V20.9595V75.8567V76.3567H211.849H226.534V93.6164H178.999V76.3567H193.684H194.184V75.8567V20.9595V20.4595H193.684ZM258.81 78.821V93.6164H241.526V39.6933C241.526 26.8487 246.423 17.145 253.729 10.6474C261.045 4.1419 270.802 0.828369 280.542 0.828369C290.399 0.828369 299.976 4.19934 307.084 10.7305C314.184 17.255 318.85 26.9597 318.85 39.6933V93.6164H301.685V49.5344V48.5746L300.898 49.1247L259.023 78.4112L258.81 78.5605V78.821ZM298.632 30.2678L298.997 30.0234L298.802 29.6294C294.937 21.8593 287.796 18.2066 280.66 18.2066C268.981 18.2066 258.81 26.2183 258.81 39.6933V55.9373V56.8726L259.587 56.353L298.632 30.2678Z" stroke="white"/>
<path opacity="0.6" d="M161.871 192.855V206.397H153.226V182.66V167.739V158.859H175.899C184.953 158.859 192.31 166.25 192.31 175.357C192.31 184.463 184.953 191.855 175.899 191.855H162.371V192.355H161.871V192.855ZM175.399 167.554V167.554H162.371H161.871V168.054V182.663V183.164L162.371 183.163L175.899 183.16C175.899 183.16 175.899 183.16 175.899 183.16C180.186 183.16 183.664 179.66 183.664 175.357C183.664 171.054 180.186 167.554 175.899 167.554H175.399ZM200.113 158.859H222.786C231.839 158.859 239.196 166.25 239.196 175.357C239.196 182.084 234.994 188.375 228.811 190.69L228.907 191.218L228.587 191.459L239.822 206.397H228.985L218.175 192.054L218.025 191.855H217.776H209.258H208.758V192.355V206.397H200.113V183.16H210.448H211.449L210.847 182.359L200.113 168.076V158.859ZM222.136 182.96L222.286 183.16H222.535H222.786C227.016 183.16 230.489 179.591 230.489 175.357C230.489 171.123 227.016 167.554 222.786 167.554H211.575H210.575L211.175 168.354L222.136 182.96ZM255.516 167.554H247.954V158.859H272.724V167.554H265.161H264.661V168.054V197.202V197.702H265.161H272.724V206.397H247.954V197.702H255.516H256.016V197.202V168.054V167.554H255.516ZM289.861 198.776V206.397H281.153V178.001C281.153 171.246 283.726 166.158 287.554 162.754C291.39 159.342 296.513 157.6 301.634 157.6C306.815 157.6 311.842 159.372 315.568 162.796C319.287 166.213 321.74 171.301 321.74 178.001V206.397H313.095V183.226V182.266L312.308 182.816L290.074 198.366L289.861 198.516V198.776ZM311.369 173.191L311.735 172.947L311.539 172.553C309.445 168.342 305.568 166.358 301.697 166.358C295.385 166.358 289.861 170.699 289.861 178.001V186.626V187.561L290.638 187.042L311.369 173.191Z" stroke="white"/>
<path d="M101.142 139.973V158.92H88.9129V126.175V105.71V93.3436H120.198C132.72 93.3436 142.893 103.566 142.893 116.158C142.893 128.751 132.72 138.973 120.198 138.973H101.642V139.473H101.142V139.973ZM101.643 126.68L120.198 126.675C120.198 126.675 120.198 126.675 120.198 126.675C125.975 126.675 130.663 121.958 130.663 116.158C130.663 110.358 125.975 105.642 120.198 105.642H119.698V105.642H101.642H101.142V106.142V126.18V126.68L101.643 126.68ZM153.224 93.3436H184.51C197.031 93.3436 207.205 103.566 207.205 116.158C207.205 125.459 201.397 134.16 192.839 137.364L192.935 137.892L192.615 138.133L208.249 158.92H192.92L178.037 139.172L177.887 138.973H177.637H165.954H165.454V139.473V158.92H153.224V126.675H167.586H168.587L167.986 125.875L153.224 106.234V93.3436ZM183.766 126.475L183.916 126.675H184.166H184.51C190.206 126.675 194.889 121.867 194.889 116.158C194.889 110.45 190.206 105.642 184.51 105.642H169.132H168.132L168.733 106.442L183.766 126.475ZM229.404 105.642H218.845V93.3436H253.192V105.642H242.633H242.133V106.142V146.122V146.622H242.633H253.192V158.92H218.845V146.622H229.404H229.904V146.122V106.142V105.642H229.404ZM276.698 148.281V158.92H264.382V119.785C264.382 110.468 267.933 103.439 273.224 98.7331C278.524 94.0198 285.597 91.6165 292.661 91.6165C299.809 91.6165 306.75 94.0612 311.899 98.7921C317.04 103.516 320.424 110.547 320.424 119.785V158.92H308.195V126.952V125.992L307.408 126.542L276.911 147.871L276.698 148.02V148.281ZM305.91 113.034L306.276 112.789L306.08 112.395C303.241 106.687 297.992 104.001 292.747 104.001C284.177 104.001 276.698 109.886 276.698 119.785V131.615V132.551L277.475 132.031L305.91 113.034Z" stroke="white"/>
<path opacity="0.5" d="M206.107 231.969V241.56H200.082V224.408V213.542V207.211H216.459C222.977 207.211 228.274 212.532 228.274 219.09C228.274 225.648 222.977 230.969 216.459 230.969H206.607V231.469H206.107V231.969ZM206.607 213.272H206.107V213.772V224.411V224.911L206.607 224.911L216.459 224.908C216.459 224.908 216.459 224.908 216.459 224.908C219.657 224.908 222.25 222.298 222.25 219.09C222.25 215.882 219.657 213.272 216.459 213.272H215.959L206.607 213.272ZM234.229 207.211H250.605C257.123 207.211 262.421 212.532 262.421 219.09C262.421 223.935 259.393 228.464 254.946 230.13L255.041 230.658L254.722 230.898L262.74 241.56H255.188L247.356 231.168L247.206 230.969H246.956H240.753H240.253V231.469V241.56H234.229V224.908H241.62H242.621L242.02 224.108L234.229 213.742V207.211ZM250.023 224.708L250.173 224.908H250.423H250.605C253.763 224.908 256.351 222.246 256.351 219.09C256.351 215.933 253.763 213.272 250.605 213.272H242.441H241.44L242.041 214.072L250.023 224.708ZM274.442 213.272H269.071V207.211H286.838V213.272H281.466H280.966V213.772V234.999V235.499H281.466H286.838V241.56H269.071V235.499H274.442H274.942V234.999V213.772V213.272H274.442ZM299.319 236.146V241.56H293.249V221.016C293.249 216.133 295.107 212.466 297.865 210.013C300.631 207.553 304.329 206.294 308.029 206.294C311.772 206.294 315.399 207.574 318.085 210.042C320.763 212.503 322.535 216.172 322.535 221.016V241.56H316.511V224.821V223.861L315.725 224.411L299.532 235.736L299.319 235.885V236.146ZM315.194 217.626L315.56 217.381L315.364 216.987C313.814 213.872 310.942 212.4 308.074 212.4C303.413 212.4 299.319 215.613 299.319 221.016V227.297V228.232L300.096 227.713L315.194 217.626Z" stroke="white"/>
<path opacity="0.4" d="M238.302 260.408V267.071H234.22V254.8V246.939V242.496H245.93C250.568 242.496 254.34 246.284 254.34 250.952C254.34 255.621 250.568 259.408 245.93 259.408H238.802V259.908H238.302V260.408ZM245.43 246.605V246.605H238.802H238.302V247.105V254.802V255.302L238.802 255.302L245.93 255.3C245.93 255.3 245.93 255.3 245.93 255.3C248.32 255.3 250.258 253.349 250.258 250.952C250.258 248.556 248.32 246.605 245.93 246.605H245.43ZM258.924 242.496H270.634C275.272 242.496 279.044 246.284 279.044 250.952C279.044 254.403 276.887 257.626 273.726 258.81L273.821 259.338L273.501 259.579L279.136 267.071H274.018L268.393 259.607L268.243 259.408H267.994H263.506H263.006V259.908V267.071H258.924V255.3H264.133H265.134L264.533 254.5L258.924 247.037V242.496ZM270.102 255.1L270.252 255.3H270.502H270.634C272.997 255.3 274.929 253.31 274.929 250.952C274.929 248.595 272.997 246.605 270.634 246.605H264.727H263.727L264.327 247.405L270.102 255.1ZM287.879 246.605H284.131V242.496H296.709V246.605H292.961H292.461V247.105V262.463V262.963H292.961H296.709V267.071H284.131V262.963H287.879H288.379V262.463V247.105V246.605H287.879ZM305.739 263.292V267.071H301.624V252.346C301.624 248.852 302.952 246.236 304.917 244.489C306.89 242.734 309.532 241.833 312.179 241.833C314.856 241.833 317.445 242.749 319.36 244.508C321.268 246.261 322.535 248.878 322.535 252.346V267.071H318.453V255.099V254.139L317.667 254.689L305.952 262.882L305.739 263.031V263.292ZM317.439 250.008L317.805 249.764L317.609 249.37C316.463 247.065 314.335 245.974 312.212 245.974C308.774 245.974 305.739 248.35 305.739 252.346V256.89V257.825L306.516 257.306L317.439 250.008Z" stroke="white"/>
<path opacity="0.3" d="M261.619 280.059V284.6H258.943V275.865V270.18V267.105H267.273C270.551 267.105 273.217 269.782 273.217 273.082C273.217 276.383 270.551 279.059 267.273 279.059H262.119V279.559H261.619V280.059ZM262.119 269.8H261.619V270.3V275.866V276.366L262.119 276.366L267.273 276.365C267.274 276.365 267.274 276.365 267.274 276.365C269.08 276.365 270.542 274.891 270.542 273.082C270.542 271.273 269.079 269.8 267.273 269.8H266.773L262.119 269.8ZM276.809 267.105H285.139C288.417 267.105 291.083 269.782 291.083 273.082C291.083 275.523 289.556 277.8 287.327 278.635L287.422 279.163L287.102 279.404L291.011 284.6H287.656L283.629 279.258L283.479 279.059H283.23H279.985H279.485V279.559V284.6H276.809V276.365H280.438H281.439L280.838 275.564L276.809 270.205V267.105ZM284.644 276.165L284.794 276.365H285.044H285.139C286.927 276.365 288.384 274.861 288.384 273.082C288.384 271.303 286.927 269.8 285.139 269.8H280.867H279.867L280.468 270.6L284.644 276.165ZM297.611 269.8H295.039V267.105H303.858V269.8H301.286H300.786V270.3V281.406V281.906H301.286H303.858V284.6H295.039V281.906H297.611H298.111V281.406V270.3V269.8H297.611ZM310.388 282.006V284.6H307.689V274.09C307.689 271.601 308.634 269.748 310.024 268.511C311.423 267.267 313.3 266.625 315.184 266.625C317.089 266.625 318.927 267.277 320.284 268.524C321.633 269.764 322.535 271.618 322.535 274.09V284.6H319.86V276.081V275.121L319.074 275.671L310.602 281.596L310.388 281.745V282.006ZM319.065 272.514L319.431 272.27L319.235 271.876C318.381 270.159 316.792 269.344 315.208 269.344C312.656 269.344 310.388 271.113 310.388 274.09V277.376V278.311L311.166 277.792L319.065 272.514Z" stroke="white"/>
<path opacity="0.2" d="M278.459 293.963V296.973H276.8V290.79V286.677V284.591H282.689C284.983 284.591 286.851 286.464 286.851 288.777C286.851 291.089 284.983 292.963 282.689 292.963H278.959V293.463H278.459V293.963ZM282.189 286.264H278.959H278.459V286.764V290.791V291.291L278.959 291.291L282.689 291.29C282.689 291.29 282.689 291.29 282.689 291.29C284.073 291.29 285.192 290.161 285.192 288.777C285.192 287.392 284.073 286.264 282.689 286.264H282.189V286.264ZM289.727 284.591H295.616C297.91 284.591 299.778 286.464 299.778 288.777C299.778 290.488 298.706 292.082 297.15 292.665L297.245 293.193L296.926 293.434L299.587 296.973H297.505L294.634 293.162L294.484 292.963H294.234H291.886H291.386V293.463V296.973H289.727V291.29H292.214H293.215L292.614 290.49L289.727 286.649V284.591ZM295.147 291.09L295.297 291.29H295.547H295.616C296.988 291.29 298.101 290.138 298.101 288.777C298.101 287.415 296.988 286.264 295.616 286.264H292.525H291.524L292.125 287.064L295.147 291.09ZM304.639 286.264H302.917V284.591H309.021V286.264H307.299H306.799V286.764V294.8V295.3H307.299H309.021V296.973H302.917V295.3H304.639H305.139V294.8V286.764V286.264H304.639ZM313.746 295.234V296.973H312.07V289.506C312.07 287.743 312.737 286.44 313.713 285.573C314.697 284.697 316.021 284.243 317.354 284.243C318.702 284.243 319.998 284.705 320.951 285.58C321.897 286.45 322.535 287.754 322.535 289.506V296.973H320.876V290.946V289.987L320.09 290.537L313.96 294.824L313.746 294.973V295.234ZM320.24 288.481L320.605 288.237L320.409 287.843C319.767 286.55 318.567 285.934 317.372 285.934C315.46 285.934 313.746 287.266 313.746 289.506V291.884V292.819L314.524 292.3L320.24 288.481Z" stroke="white"/>
</svg>
