<svg width="297" height="260" viewBox="0 0 297 260" fill="none" xmlns="http://www.w3.org/2000/svg">
<g clip-path="url(#clip0_1851_14)">
<path fill-rule="evenodd" clip-rule="evenodd" d="M1.68013 260H0.602051L0.976308 258.558L1.98177 258.826L1.68013 260ZM2.80291 255.82L3.26095 254.143L3.64638 252.818L2.6465 252.522L2.26107 253.858L1.79744 255.535L2.80291 255.82ZM4.51779 249.828L3.52349 249.515L4.434 246.531L5.42829 246.838L4.51779 249.828ZM6.37231 243.865L6.8136 242.479L7.33868 240.903L6.35556 240.568L5.82489 242.161L5.38361 243.547L6.37231 243.865ZM8.33856 237.952L7.35544 237.6L8.38325 234.655L9.36637 235.002L8.33856 237.952ZM10.4277 232.073L10.8355 230.95L11.517 229.15L10.545 228.776L9.86352 230.586L9.45016 231.71L10.4277 232.073ZM12.6341 226.244L13.7793 223.343L12.8185 222.941L11.6678 225.853L12.6341 226.244ZM14.9635 220.454L15.3266 219.56L16.17 217.576L15.2148 217.162L14.3658 219.157L14.0027 220.052L14.9635 220.454ZM17.4045 214.714L18.6614 211.864L17.7173 211.423L16.4549 214.29L17.4045 214.714ZM19.9573 209.019L20.2757 208.321L21.2756 206.197L20.3371 205.75L19.3317 207.879L19.0133 208.583L19.9573 209.019ZM22.6218 203.386L23.8283 200.916L23.9959 200.586L23.0687 200.111L22.8955 200.452L21.6889 202.922L22.6218 203.386ZM25.398 197.797L25.6829 197.238L26.828 195.025L25.9063 194.539L24.7556 196.763L24.4707 197.322L25.398 197.797ZM28.2859 192.27L29.5316 189.945L29.7606 189.526L28.8557 189.017L28.6155 189.448L27.3698 191.772L28.2859 192.27ZM31.2744 186.793L31.5313 186.323L32.8105 184.082L31.9056 183.557L30.6208 185.815L30.3639 186.284L31.2744 186.793ZM34.369 181.383L35.6761 179.153L35.9498 178.695L35.0616 178.153L34.7823 178.617L33.4752 180.846L34.369 181.383ZM37.5641 176.023L37.8211 175.593L39.2008 173.369L38.3238 172.815L36.9329 175.051L36.676 175.476L37.5641 176.023ZM40.8654 170.731L42.2563 168.546L42.5468 168.11L41.681 167.528L41.3849 167.981L39.9884 170.166L40.8654 170.731ZM44.2561 165.494L44.5465 165.058L45.9933 162.907L45.1331 162.32L43.6807 164.477L43.3903 164.919L44.2561 165.494ZM47.7529 160.33L49.2667 158.139L49.5292 157.771L48.6857 157.161L48.412 157.541L46.8982 159.732L47.7529 160.33ZM51.339 155.222L51.6965 154.719L53.1656 152.702L52.3333 152.081L50.8531 154.11L50.4956 154.618L51.339 155.222ZM55.0202 150.192L56.8859 147.7L56.0647 147.062L54.1879 149.566L55.0202 150.192ZM58.7907 145.218L59.2711 144.592L60.7066 142.765L59.8967 142.116L58.4499 143.955L57.9639 144.581L58.7907 145.218ZM62.645 140.322L64.6056 137.897L63.8068 137.232L61.8406 139.663L62.645 140.322ZM66.5942 135.488L67.2589 134.689L68.5996 133.102L67.8119 132.426L66.4601 134.024L65.7954 134.823L66.5942 135.488ZM70.6217 130.732L69.8396 130.045L71.8897 127.686L72.6717 128.374L70.6217 130.732ZM74.7385 126.043L75.649 125.02L76.8276 123.729L76.0624 123.02L74.8781 124.322L73.9676 125.345L74.7385 126.043ZM78.9335 121.427L78.1738 120.711L80.3077 118.431L81.0618 119.147L78.9335 121.427ZM83.2123 116.889L84.4468 115.592L85.3741 114.642L84.6367 113.91L83.6983 114.871L82.4638 116.162L83.2123 116.889ZM87.5582 112.418L86.8264 111.674L89.0385 109.467L89.7646 110.21L87.5582 112.418ZM91.9878 108.025L93.6357 106.421L94.2278 105.857L93.5184 105.097L92.9095 105.672L91.2673 107.276L91.9878 108.025ZM96.4901 103.705L96.7806 103.425L98.7691 101.576L98.0653 100.81L96.0711 102.665L95.7751 102.945L96.4901 103.705ZM101.065 99.4631L103.372 97.3729L102.685 96.5904L100.367 98.6918L101.065 99.4631ZM105.707 95.2994L106.489 94.6064L108.053 93.2484L107.377 92.4547L105.802 93.824L105.02 94.517L105.707 95.2994ZM110.416 91.214L109.751 90.4149L112.131 88.3973L112.801 89.1965L110.416 91.214ZM115.197 87.2013L116.571 86.0668L117.61 85.2285L116.963 84.4125L115.912 85.262L114.538 86.3965L115.197 87.2013ZM120.035 83.2724L119.398 82.4453L121.845 80.5116L122.487 81.3331L120.035 83.2724ZM124.945 79.4218L127.028 77.8178L127.419 77.5216L126.799 76.6889L126.397 76.9907L124.314 78.5891L124.945 79.4218ZM129.916 75.6438L130.592 75.1352L132.419 73.7939L131.81 72.95L129.972 74.2969L129.296 74.8111L129.916 75.6438ZM134.938 71.9552L134.335 71.1057L136.876 69.2838L137.474 70.1333L134.938 71.9552ZM140.027 68.3393L141.535 67.283L142.591 66.5676L142.004 65.7014L140.943 66.4279L139.435 67.4842L140.027 68.3393ZM145.166 64.8016L147.758 63.0747L147.188 62.2028L144.585 63.9409L145.166 64.8016ZM150.361 61.3589L152.975 59.6599L152.422 58.7769L149.802 60.4815L150.361 61.3589ZM155.612 57.9889L156.678 57.3071L158.254 56.3346L157.712 55.446L156.125 56.4296L155.059 57.1059L155.612 57.9889ZM160.907 54.6971L160.376 53.8029L163.052 52.1878L163.583 53.082L160.907 54.6971ZM166.264 51.4948L168.442 50.2094L168.951 49.9187L168.442 49.0134L167.923 49.3096L165.739 50.5894L166.264 51.4948ZM171.66 48.3651L172.442 47.918L174.38 46.8338L173.878 45.9228L171.928 47.0126L171.152 47.4597L171.66 48.3651ZM177.101 45.3248L176.609 44.4026L179.352 42.9105L179.843 43.827L177.101 45.3248ZM182.597 42.3628L184.658 41.2674L185.357 40.9097L184.882 39.9819L184.178 40.3452L182.111 41.4406L182.597 42.3628ZM188.133 39.479L188.809 39.1269L190.915 38.0762L190.451 37.1429L188.334 38.1991L187.658 38.5512L188.133 39.479ZM193.702 36.6846L193.25 35.7457L196.059 34.3764L196.506 35.3153L193.702 36.6846ZM199.321 33.974L201.472 32.9513L202.142 32.6439L201.712 31.6938L201.031 32.0068L198.88 33.0295L199.321 33.974ZM204.974 31.3361L205.762 30.9729L207.818 30.0563L207.399 29.1006L205.332 30.0284L204.544 30.3861L204.974 31.3361ZM210.666 28.7877L210.259 27.832L213.119 26.5857L213.532 27.5414L210.666 28.7877ZM216.398 26.323L218.855 25.2891L219.274 25.1159L218.883 24.149L218.453 24.3223L216.001 25.3618L216.398 26.323ZM222.162 23.9366L223.291 23.4728L225.056 22.7742L224.676 21.8017L222.9 22.5115L221.777 22.9698L222.162 23.9366ZM227.955 21.6285L227.586 20.656L230.502 19.5383L230.871 20.5107L227.955 21.6285ZM233.787 19.4153L233.429 18.4373L236.356 17.3475L236.714 18.3255L233.787 19.4153ZM239.652 17.2748L241.372 16.6545L242.59 16.2353L242.255 15.2517L241.026 15.6765L239.306 16.2912L239.652 17.2748ZM245.539 15.2126L245.975 15.0617L248.494 14.2178L248.17 13.2286L245.64 14.0781L245.204 14.229L245.539 15.2126ZM251.455 13.2398L251.137 12.2505L254.108 11.2893L254.427 12.2841L251.455 13.2398ZM257.398 11.3508L260.376 10.4286L260.085 9.42823L257.097 10.356L257.398 11.3508ZM263.37 9.53441L264.733 9.13202L266.358 8.66257L266.079 7.66218L264.442 8.13164L263.079 8.53962L263.37 9.53441ZM269.363 7.8019L272.369 6.97476L272.095 5.96879L269.079 6.80151L269.363 7.8019ZM275.374 6.15881L275.117 5.14724L278.133 4.35364L278.396 5.35961L275.374 6.15881ZM281.412 4.58837L284.44 3.83388L284.2 2.81673L283.764 2.92292L281.166 3.5768L281.412 4.58837ZM287.473 3.10176L288.914 2.75526L290.506 2.3864L290.283 1.36924L288.674 1.7381L287.233 2.08461L287.473 3.10176ZM293.55 1.6878L296.595 1.01715L296.377 0L293.321 0.67065L293.55 1.6878Z" fill="white"/>
</g>
<defs>
<clipPath id="clip0_1851_14">
<rect width="296" height="260" fill="white" transform="translate(0.598145)"/>
</clipPath>
</defs>
</svg>
