<svg width="71" height="21" viewBox="0 0 71 21" fill="none" xmlns="http://www.w3.org/2000/svg">
<path opacity="0.5" d="M4.13184 15.1971V20.2026H1.1488V10.6934V4.53197V1.1583H10.2185C13.7937 1.1583 16.7018 4.07772 16.7018 7.67769C16.7018 11.2777 13.7937 14.1971 10.2185 14.1971H4.63184V14.6971L4.13184 14.6971V14.6971V15.1971ZM4.63184 4.16197H4.13184V4.66197V10.695V11.1952L4.63198 11.195L10.2185 11.1934C10.2185 11.1934 10.2186 11.1934 10.2186 11.1934C12.1524 11.1934 13.7187 9.61522 13.7187 7.67768C13.7187 5.74012 12.1523 4.16196 10.2185 4.16196H9.71846L4.63184 4.16197ZM20.5111 1.15829H29.5808C33.156 1.15829 36.0641 4.07772 36.0641 7.67769C36.0641 10.3395 34.3992 12.8237 31.966 13.7349L32.0617 14.2631L31.7418 14.5037L36.028 20.2026H32.2872L27.911 14.3962L27.761 14.1971H27.5117H23.9942H23.4942V14.6971V20.2026H20.5111V11.1934H24.4856H25.4869L24.8853 10.393L20.5111 4.57299V1.15829ZM29.0775 10.9935L29.2275 11.1934H29.4774H29.5808C31.4944 11.1934 33.0552 9.58363 33.0552 7.67768C33.0552 5.77176 31.4944 4.16196 29.5808 4.16196H24.9512H23.9508L24.5512 4.96208L29.0775 10.9935ZM43.0971 4.16196H40.2677V1.15828H49.9096V4.16196H47.0802H46.5802V4.66196V16.6989V17.1989H47.0802H49.9096V20.2026H40.2677V17.1989H43.0971H43.5971V16.6989V4.66196V4.16196H43.0971ZM56.9865 17.3489V20.2026H53.9776V8.76962C53.9776 6.06105 55.0063 4.04081 56.5223 2.69261C58.0473 1.33648 60.0912 0.638306 62.142 0.638306C64.2165 0.638306 66.2188 1.34786 67.6975 2.70656C69.169 4.05867 70.1513 6.07994 70.1513 8.76962V20.2026H67.1683V10.9274V9.96757L66.3817 10.5177L57.1999 16.9391L56.9865 17.0884V17.3489ZM66.3252 7.02754L66.6911 6.78309L66.4952 6.3891C65.5772 4.54365 63.8702 3.66799 62.1679 3.66799C59.4221 3.66799 56.9865 5.5701 56.9865 8.76961V12.3313V13.2667L57.7643 12.7471L66.3252 7.02754Z" stroke="white"/>
</svg>
